<?xml version="1.0" encoding="UTF-8"?><svg id="a" xmlns="http://www.w3.org/2000/svg" viewBox="0 0 1500 890"><defs><style>.b{fill:#e91c33;}.c{fill:#15202a;}</style></defs><path class="b" d="M207.34,385.65h95.35c18.79,0,33.98,2.88,45.55,8.64,11.57,5.76,21.13,14.02,28.69,24.79,7.56,10.77,13.03,23.29,16.43,37.58,3.4,14.29,5.1,29.42,5.1,45.42,0,25.05-2.53,44.48-7.58,58.29-5.05,13.81-12.07,25.37-21.04,34.7-8.97,9.33-18.61,15.54-28.9,18.63-14.08,4.26-26.83,6.4-38.25,6.4h-95.35v-234.43Zm64.18,53.09v128.09h15.73c13.41,0,22.95-1.68,28.62-5.04s10.11-9.22,13.32-17.59c3.21-8.37,4.82-21.93,4.82-40.7,0-24.84-3.59-41.84-10.77-51.01-7.18-9.17-19.08-13.75-35.7-13.75h-16.01Z"/><path class="c" d="M432.33,385.65h120.14c20.02,0,35.4,5.6,46.12,16.79,10.72,11.19,16.08,25.05,16.08,41.58,0,13.86-3.83,25.75-11.48,35.66-5.1,6.61-12.56,11.83-22.39,15.67,14.92,4.05,25.9,11.01,32.94,20.87,7.04,9.86,10.56,22.26,10.56,37.18,0,12.15-2.5,23.08-7.51,32.78-5.01,9.7-11.85,17.38-20.54,23.03-5.38,3.52-13.51,6.08-24.37,7.68-14.45,2.13-24.04,3.2-28.76,3.2h-110.79v-234.43Zm64.75,91.95h27.91c10.01,0,16.98-1.94,20.9-5.84,3.92-3.89,5.88-9.52,5.88-16.87,0-6.82-1.96-12.15-5.88-15.99-3.92-3.84-10.75-5.76-20.47-5.76h-28.34v44.46Zm0,92.11h32.73c11.05,0,18.84-2.21,23.38-6.64,4.53-4.42,6.8-10.37,6.8-17.83,0-6.93-2.24-12.5-6.73-16.71-4.49-4.21-12.35-6.32-23.59-6.32h-32.59v47.49Z"/><path class="c" d="M886.83,385.65h181.63v46.86l-116.59,137.21h120.84v50.37h-197.07v-48.61l115.37-135.77h-104.18v-50.05Z"/><path class="c" d="M1096.37,385.65h181.63v46.86l-116.59,137.21h120.84v50.37h-197.07v-48.61l115.37-135.77h-104.18v-50.05Z"/><g><path class="b" d="M554.51,321.24c-.24-.51,0-.71,.61-.84,5.55-1.18,11.1-2.4,16.64-3.61,1.6-.35,3.2-.69,4.79-1.05,.26-.06,.48-.03,.71,.1,2.26,1.26,4.53,2.51,6.8,3.75,.34,.18,.38,.33,.19,.67-1.13,2-2.24,4-3.33,6.03-.23,.44-.42,.38-.77,.19-1.3-.74-2.62-1.45-3.93-2.19-.31-.18-.6-.25-.97-.17-3.95,.87-7.9,1.72-11.85,2.58-2.29,.5-4.57,.99-6.85,1.5-.39,.09-.56,.03-.65-.4-.44-2.16-.92-4.31-1.41-6.55Z"/><path class="b" d="M575.31,300.13c.06-.56,.36-.61,.96-.4,5.35,1.89,10.72,3.74,16.08,5.6,1.54,.54,3.09,1.08,4.63,1.61,.25,.09,.42,.23,.55,.46,1.27,2.25,2.55,4.51,3.85,6.75,.19,.33,.15,.48-.19,.67-2,1.12-4,2.24-5.98,3.41-.43,.25-.56,.11-.75-.24-.72-1.31-1.48-2.61-2.21-3.92-.17-.31-.38-.53-.73-.65-3.82-1.32-7.64-2.65-11.45-3.98-2.21-.77-4.42-1.54-6.63-2.3-.38-.13-.49-.27-.34-.68,.75-2.07,1.46-4.16,2.22-6.32Z"/><path class="b" d="M659.56,377.27c27.52,0,49.91,22.39,49.91,49.91,0,5.24-.81,10.36-2.36,15.22l-62.66-62.8c4.83-1.53,9.92-2.32,15.11-2.32m0-22.12c-19.58,0-37.33,7.82-50.31,20.49l101.74,101.97c12.74-12.99,20.6-30.79,20.6-50.43,0-39.78-32.25-72.03-72.03-72.03h0Z"/><path class="b" d="M733.86,263.24c1.56,4.87,2.36,10,2.36,15.24,0,27.52-22.39,49.91-49.91,49.91-5.21,0-10.3-.8-15.14-2.33l62.68-62.82m3.87-35.2l-101.74,101.97c12.98,12.69,30.74,20.51,50.33,20.51,39.78,0,72.03-32.25,72.03-72.03,0-19.65-7.87-37.45-20.62-50.44h0Z"/><rect class="b" x="644.58" y="386.11" width="57.08" height="11.53" transform="translate(-79.73 591.58) rotate(-45.06)"/><rect class="b" x="665.11" y="406.3" width="57.08" height="11.53" transform="translate(-87.99 612.04) rotate(-45.06)"/><path class="b" d="M588.75,355.81h0c.83,.97,1.74,1.87,2.7,2.71l8.13,8.14,37.01-37.09-9.18-9.2c-.15-.15-.3-.3-.45-.45l-1.12-1.12-.05,.05c-4.6-3.99-10.6-6.41-17.17-6.41-14.49,0-26.24,11.75-26.24,26.24,0,6.55,2.4,12.53,6.37,17.12h0Z"/></g><path class="c" d="M785.53,385.65v143c0,13-3.14,23.04-9.42,30.12-6.28,7.08-14.95,10.62-26,10.62s-19.86-3.59-26.14-10.79c-6.28-7.19-9.42-17.18-9.42-29.96v-32.67l-64.04-63.02v92.36c0,11.51,1.98,24.72,5.95,39.63,2.46,9.27,7.01,18.27,13.67,27.01,6.66,8.74,14,15.47,22.03,20.21,8.03,4.74,18.01,7.91,29.97,9.51,11.95,1.6,22.97,2.4,33.08,2.4,17.47,0,32.44-2.61,44.91-7.83,8.97-3.73,17.54-10.2,25.71-19.41,8.17-9.22,14.17-19.98,17.99-32.28,3.82-12.3,5.74-25.38,5.74-39.23v-139.67h-64.04Z"/></svg>